<svg width="888" height="343" viewBox="0 0 888 343" fill="none" xmlns="http://www.w3.org/2000/svg">
<g clip-path="url(#clip0_1_2)">
<path d="M560.17 337.74L418.68 333.72C418.68 333.72 429.33 270.01 395.16 252.33C371.87 240.27 351.2 183.94 357.08 145.61C357.16 145.1 357.24 144.59 357.33 144.09C360.31 126.93 368.83 113.64 385.12 110.03C437.78 98.37 475.36 107.41 475.36 107.41C475.36 107.41 484.06 107.52 496.95 109.94C497.41 110.02 497.87 110.11 498.33 110.21C534.82 117.36 602.27 142.82 605.19 233.22C609.21 357.42 560.17 337.72 560.17 337.72V337.74Z" fill="#3F3D56"/>
<path d="M496.95 109.95C496.71 116.43 495.24 122.87 492.56 128.99C487 141.68 476.86 151.37 464.02 156.28C425.56 171 380.68 156.4 357.98 140.57C357.89 141.07 356.09 150.56 356.01 151.07C366.06 157.95 415.25 164.58 424.58 164.58C438.75 164.58 452.39 162.23 464.52 157.58C477.71 152.53 488.12 142.57 493.83 129.54C496.56 123.32 498.06 116.79 498.33 110.21C497.87 110.11 497.41 110.02 496.95 109.94V109.95Z" fill="#6C63FF"/>
<path d="M507.41 118.2L484.86 61.49C484.86 61.49 511.93 15.09 490.66 9.94C469.39 4.78 447.48 32.49 447.48 32.49C447.48 32.49 406.88 18.31 391.42 29.91C391.42 29.91 365.64 -6.18 350.18 0.91C334.71 8 355.68 59.09 355.68 59.09C355.68 59.09 323.76 105.95 348.25 133.01C372.74 160.08 464.89 181.99 507.42 118.19L507.41 118.2Z" fill="#3F3D56"/>
<path d="M1 336.08H888V334.08H1C0.45 334.08 0 334.53 0 335.08C0 335.63 0.45 336.08 1 336.08Z" fill="#3F3D56"/>
<path d="M555.78 303.8C563.46 307.22 571.48 310.7 579.88 310.37C588.28 310.04 597.11 304.63 598.42 296.33C599.1 292.04 597.76 287.45 599.4 283.43C601.61 278.03 608.73 275.94 614.26 277.79C619.8 279.64 623.86 284.42 626.78 289.47C632.24 298.93 634.42 311.35 628.57 320.57C623.5 328.56 613.88 332.18 604.94 335.28C593.02 339.41 579.72 343.5 568.17 338.43C556.56 333.33 550.23 318.6 554.53 306.67" fill="#3F3D56"/>
<path d="M428.74 92.71C428.74 92.71 414.86 87.16 405.85 94.1L416.26 110.06L428.75 92.72L428.74 92.71Z" fill="#6C63FF"/>
<path d="M355.89 165.55L381.56 302.23C381.56 302.23 342.71 341.78 392.66 341.08C442.61 340.39 428.04 314.72 428.04 314.72L412.08 196.08" fill="#3F3D56"/>
<path d="M391.4 342.09C377.87 342.09 369.69 338.99 367.07 332.86C362.3 321.7 377.83 304.69 380.49 301.89L363.23 199.71L365.2 199.38L382.63 302.56L382.27 302.92C382.09 303.1 364.33 321.37 368.91 332.07C371.26 337.57 379.23 340.26 392.65 340.07C411.3 339.81 423.32 335.9 427.42 328.77C431.11 322.35 427.21 315.27 427.17 315.2L427.08 315.03L427.05 314.84L415.95 232.28L417.93 232.01L429.01 314.39C429.67 315.64 433.12 322.85 429.17 329.75C424.64 337.65 412.36 341.8 392.68 342.07C392.25 342.07 391.83 342.07 391.41 342.07L391.4 342.09Z" fill="#2F2E41"/>
<path d="M421.1 165.55L446.77 302.23C446.77 302.23 407.92 341.78 457.87 341.08C507.82 340.39 493.25 314.72 493.25 314.72L477.29 196.08" fill="#3F3D56"/>
<path d="M456.61 342.09C443.08 342.09 434.9 338.99 432.28 332.86C427.51 321.72 443.01 304.73 445.69 301.9L435.38 246.9L437.35 246.53L447.85 302.55L447.48 302.92C447.3 303.1 429.54 321.37 434.12 332.07C436.47 337.57 444.45 340.27 457.86 340.07C476.52 339.81 488.55 335.9 492.64 328.75C496.33 322.31 492.42 315.27 492.38 315.2L492.28 315.03L476.3 196.2L478.28 195.93L494.21 314.39C494.87 315.64 498.32 322.85 494.37 329.75C489.84 337.65 477.56 341.8 457.88 342.07C457.45 342.07 457.03 342.07 456.61 342.07V342.09Z" fill="#2F2E41"/>
<path d="M528.099 69.7585L528.248 69.3534C529.254 66.7206 530.295 64.7145 531.37 63.3352C532.459 61.9611 533.652 60.9642 534.947 60.3446C536.242 59.725 537.698 59.2615 539.314 58.9543C540.366 58.7295 541.357 58.4092 542.286 57.9935C543.215 57.5777 544.039 57.01 544.757 56.2902C545.475 55.5704 546.029 54.6847 546.418 53.633C546.885 52.3682 546.992 51.1636 546.736 50.0192C546.481 48.8748 545.948 47.87 545.137 47.0048C544.345 46.1307 543.346 45.4703 542.138 45.0237C541.043 44.6192 539.915 44.4604 538.752 44.5474C537.589 44.6344 536.502 45.0402 535.491 45.7649C534.485 46.4754 533.654 47.5655 532.998 49.0351L526.517 46.6393C527.563 44.118 529.008 42.197 530.853 40.8761C532.703 39.541 534.777 38.7812 537.075 38.5967C539.387 38.4175 541.736 38.7692 544.124 39.6518C546.739 40.6185 548.845 41.9547 550.444 43.6604C552.048 45.3518 553.067 47.2711 553.501 49.4184C553.954 51.5568 553.752 53.7842 552.896 56.1007C552.307 57.6923 551.528 59.0357 550.558 60.1309C549.593 61.2118 548.465 62.0789 547.173 62.7322C545.896 63.3908 544.476 63.8673 542.913 64.1619C541.427 64.4685 540.157 64.8876 539.104 65.4192C538.066 65.9561 537.171 66.7157 536.42 67.6981C535.669 68.6805 534.978 69.9836 534.345 71.6074L534.195 72.0124L528.099 69.7585ZM526.526 83.9093C525.361 83.4785 524.511 82.696 523.977 81.5617C523.449 80.4133 523.403 79.2493 523.839 78.0697C524.27 76.9044 525.057 76.0646 526.2 75.5503C527.348 75.0218 528.505 74.9729 529.67 75.4038C530.822 75.8293 531.661 76.6164 532.19 77.7648C532.738 78.9043 532.796 80.0567 532.366 81.2221C532.077 82.0037 531.612 82.6478 530.973 83.1544C530.353 83.6521 529.652 83.9746 528.87 84.1218C528.089 84.2691 527.308 84.1983 526.526 83.9093Z" fill="#3F3D56"/>
</g>
<defs>
<clipPath id="clip0_1_2">
<rect width="888" height="342.09" fill="white"/>
</clipPath>
</defs>
</svg>
